<svg xmlns="http://www.w3.org/2000/svg" viewBox="0 0 1200 630" role="img" aria-labelledby="title desc">
  <title id="title">Parrot English social preview</title>
  <desc id="desc">A bright lesson preview card for Parrot English.</desc>
  <defs>
    <linearGradient id="sky" x1="0" x2="1200" y1="0" y2="630" gradientUnits="userSpaceOnUse">
      <stop offset="0" stop-color="#9ee9ff" />
      <stop offset="0.58" stop-color="#68cff8" />
      <stop offset="1" stop-color="#3d97ed" />
    </linearGradient>
    <linearGradient id="body" x1="746" x2="920" y1="145" y2="488" gradientUnits="userSpaceOnUse">
      <stop offset="0" stop-color="#98df00" />
      <stop offset="0.65" stop-color="#4fb718" />
      <stop offset="1" stop-color="#219642" />
    </linearGradient>
    <linearGradient id="beak" x1="614" x2="778" y1="255" y2="358" gradientUnits="userSpaceOnUse">
      <stop offset="0" stop-color="#ffd44a" />
      <stop offset="0.52" stop-color="#ffad1c" />
      <stop offset="1" stop-color="#f57b12" />
    </linearGradient>
    <linearGradient id="crest" x1="836" x2="1015" y1="83" y2="204" gradientUnits="userSpaceOnUse">
      <stop offset="0" stop-color="#36c7ff" />
      <stop offset="1" stop-color="#138fe0" />
    </linearGradient>
    <filter id="shadow" x="-12%" y="-12%" width="124%" height="132%">
      <feDropShadow dx="0" dy="18" stdDeviation="14" flood-color="#196070" flood-opacity="0.24" />
    </filter>
  </defs>
  <rect width="1200" height="630" fill="url(#sky)" />
  <path d="M0 431c146-78 305-98 482-61 189 40 392 9 718-105v365H0z" fill="#a6df55" />
  <path d="M0 498c177-68 338-75 530-23 210 57 420 17 670-80v235H0z" fill="#66bd45" />
  <circle cx="173" cy="124" r="58" fill="#fff3a6" opacity="0.92" />
  <g fill="#ffffff" opacity="0.86">
    <ellipse cx="930" cy="74" rx="88" ry="28" />
    <ellipse cx="1005" cy="76" rx="58" ry="23" />
    <ellipse cx="875" cy="84" rx="48" ry="21" />
  </g>
  <text x="92" y="252" fill="#1f1d25" font-family="Arial Rounded MT Bold, Arial, sans-serif" font-size="86" font-weight="900">Parrot English</text>
  <text x="98" y="334" fill="#284559" font-family="Arial, sans-serif" font-size="36" font-weight="700">Kids speaking practice with Polly</text>
  <rect x="98" y="382" width="358" height="78" rx="39" fill="#ff467b" />
  <text x="132" y="434" fill="#ffffff" font-family="Arial Rounded MT Bold, Arial, sans-serif" font-size="32" font-weight="900">Listen. Speak. Try again.</text>
  <g filter="url(#shadow)" transform="translate(250 55) scale(0.84)">
    <path d="M842 153c-2-67 36-115 93-130 27 55 9 114-53 162z" fill="url(#crest)" stroke="#086aad" stroke-width="15" stroke-linejoin="round" />
    <path d="M890 188c36-56 92-72 147-48-4 60-46 100-119 102z" fill="url(#crest)" stroke="#086aad" stroke-width="15" stroke-linejoin="round" />
    <path d="M710 470c-27-47-36-106-22-174 19-94 78-153 163-149 98 5 157 82 152 193-5 105-69 183-164 187-58 3-102-17-129-57z" fill="url(#body)" stroke="#147739" stroke-width="17" stroke-linejoin="round" />
    <path d="M729 258c-64-47-132-51-194-8 37 68 102 94 194 67z" fill="url(#beak)" stroke="#c56911" stroke-width="16" stroke-linejoin="round" />
    <path d="M720 318c-58 0-98 24-120 73 50 27 105 14 149-35z" fill="url(#beak)" stroke="#c56911" stroke-width="16" stroke-linejoin="round" />
    <path d="M632 326c29-12 64-8 92 12-22 12-56 11-92-12z" fill="#c9252d" opacity="0.88" />
    <ellipse cx="833" cy="309" rx="61" ry="68" fill="#ffffff" />
    <ellipse cx="852" cy="310" rx="23" ry="31" fill="#1b1a20" />
    <circle cx="860" cy="296" r="8" fill="#ffffff" />
    <path d="M798 232c21-18 56-13 71 10" fill="none" stroke="#18191b" stroke-width="16" stroke-linecap="round" />
    <circle cx="921" cy="376" r="35" fill="#ff5f66" opacity="0.95" />
    <path d="M836 520c58-7 94-45 106-109 13-67-9-116-63-148-20 82-35 164-43 257z" fill="#38a545" stroke="#147739" stroke-width="15" stroke-linejoin="round" />
  </g>
</svg>
