<svg xmlns="http://www.w3.org/2000/svg" viewBox="0 0 256 256" role="img" aria-label="Back">
  <defs>
    <radialGradient id="backFace" cx="39%" cy="28%" r="74%">
      <stop offset="0%" stop-color="#ff83b1" />
      <stop offset="52%" stop-color="#ff4e86" />
      <stop offset="100%" stop-color="#f63376" />
    </radialGradient>
    <linearGradient id="backGloss" x1="60" y1="44" x2="126" y2="108">
      <stop offset="0%" stop-color="#ffffff" stop-opacity="0.6" />
      <stop offset="100%" stop-color="#ffffff" stop-opacity="0" />
    </linearGradient>
    <filter id="backShadow" x="-20%" y="-12%" width="140%" height="140%">
      <feDropShadow dx="0" dy="8" stdDeviation="0" flood-color="#b62561" flood-opacity="0.52" />
      <feDropShadow dx="0" dy="13" stdDeviation="8" flood-color="#583046" flood-opacity="0.22" />
    </filter>
  </defs>
  <g filter="url(#backShadow)">
    <circle cx="128" cy="119" r="106" fill="#fff3f8" />
    <circle cx="128" cy="126" r="98" fill="url(#backFace)" />
    <ellipse cx="100" cy="76" rx="57" ry="27" fill="url(#backGloss)" transform="rotate(-17 100 76)" />
    <path
      d="M170 83c0-4.4-5.1-6.8-8.4-4L76.9 121.8c-4.5 3.6-4.5 10.4 0 14l84.7 42.8c3.3 2.8 8.4.4 8.4-4v-29.1h30.5c5.2 0 9.5-4.2 9.5-9.5v-15.4c0-5.2-4.2-9.5-9.5-9.5H170V83Z"
      fill="#ffffff"
    />
  </g>
</svg>
